<svg xmlns="http://www.w3.org/2000/svg" width="1400" height="1500" viewBox="0 0 1400 1500" role="img" aria-labelledby="title desc">
  <title id="title">The real AI gap is architecture</title>
  <desc id="desc">A clean comparison between old dashboard-centric architecture and new agentic AI architecture using the V.E.N.K.A.T Framework.</desc>
  <defs>
    <style>
      .title{font:900 72px Arial,sans-serif;fill:#f4f4f4}
      .gold{fill:#f2c84b}
      .head{font:800 31px Arial,sans-serif;fill:#dfe8f6}
      .body{font:600 23px Arial,sans-serif;fill:#eaf0f8}
      .small{font:500 20px Arial,sans-serif;fill:#cbd6e7}
      .oldBox{fill:#222831;stroke:#6f7784;stroke-width:2}
      .newBox{stroke:#4db8ff;stroke-width:2}
    </style>
  </defs>
  <rect width="1400" height="1500" fill="#080c13"/>
  <text x="700" y="95" text-anchor="middle" class="title">THE <tspan class="gold">REAL</tspan> AI GAP</text>
  <text x="700" y="154" text-anchor="middle" class="head">It is not the model. It is the architecture.</text>
  <line x1="700" y1="220" x2="700" y2="1080" stroke="#dad5c8" stroke-width="5" stroke-dasharray="18 18"/>

  <text x="350" y="250" text-anchor="middle" class="head">OLD WORLD ARCHITECTURE</text>
  <text x="350" y="294" text-anchor="middle" class="body" fill="#9ca8b8">BUILT FOR DASHBOARDS</text>
  <g transform="translate(145 360)">
    <rect class="oldBox" x="0" y="0" width="410" height="74" rx="8"/>
    <rect class="oldBox" x="0" y="92" width="410" height="74" rx="8"/>
    <rect class="oldBox" x="0" y="184" width="410" height="74" rx="8"/>
    <rect class="oldBox" x="0" y="276" width="410" height="74" rx="8"/>
    <rect class="oldBox" x="0" y="368" width="410" height="74" rx="8"/>
    <rect class="oldBox" x="0" y="460" width="410" height="74" rx="8"/>
    <text x="205" y="47" text-anchor="middle" class="body">SILOED DATA</text>
    <text x="205" y="139" text-anchor="middle" class="body">BATCH PROCESSES</text>
    <text x="205" y="231" text-anchor="middle" class="body">LIMITED CONTEXT</text>
    <text x="205" y="323" text-anchor="middle" class="body">DISCONNECTED SYSTEMS</text>
    <text x="205" y="415" text-anchor="middle" class="body">MANUAL WORKFLOWS</text>
    <text x="205" y="507" text-anchor="middle" class="body">REACTIVE GOVERNANCE</text>
  </g>
  <g transform="translate(170 945)" class="small">
    <text x="0" y="0">Slow decisions</text>
    <text x="0" y="38">Incomplete context</text>
    <text x="0" y="76">High operational cost</text>
    <text x="0" y="114">Humans in every loop</text>
  </g>

  <text x="1050" y="250" text-anchor="middle" class="head">NEW WORLD ARCHITECTURE</text>
  <text x="1050" y="294" text-anchor="middle" class="body" fill="#67c3ff">BUILT FOR AGENTIC AI</text>
  <g transform="translate(815 360)">
    <rect class="newBox" x="0" y="0" width="470" height="82" rx="8" fill="#0f3a25"/>
    <rect class="newBox" x="0" y="96" width="470" height="82" rx="8" fill="#0b3c59"/>
    <rect class="newBox" x="0" y="192" width="470" height="82" rx="8" fill="#113b75"/>
    <rect class="newBox" x="0" y="288" width="470" height="82" rx="8" fill="#2b2768"/>
    <rect class="newBox" x="0" y="384" width="470" height="82" rx="8" fill="#60311a"/>
    <rect class="newBox" x="0" y="480" width="470" height="82" rx="8" fill="#514108"/>
    <text x="34" y="52" class="body" fill="#9be58b">V</text><text x="86" y="36" class="body">VERIFIED DATA</text><text x="86" y="64" class="small">Trust starts at the source</text>
    <text x="34" y="148" class="body" fill="#55dfe8">E</text><text x="86" y="132" class="body">EVENT-DRIVEN ARCHITECTURE</text><text x="86" y="160" class="small">Real-time signals, not batch</text>
    <text x="34" y="244" class="body" fill="#72baff">N</text><text x="86" y="228" class="body">NATIVE SPATIAL INTELLIGENCE</text><text x="86" y="256" class="small">Context of where things happen</text>
    <text x="34" y="340" class="body" fill="#b694ff">K</text><text x="86" y="324" class="body">KNOWLEDGE GRAPHS</text><text x="86" y="352" class="small">Relationships, not just data</text>
    <text x="34" y="436" class="body" fill="#ffad63">A</text><text x="86" y="420" class="body">AI ORCHESTRATION</text><text x="86" y="448" class="small">Connect systems into action</text>
    <text x="34" y="532" class="body" fill="#ffe984">T</text><text x="86" y="516" class="body">TRUST AND GOVERNANCE</text><text x="86" y="544" class="small">Control decisions at scale</text>
  </g>
  <g transform="translate(840 945)" class="small">
    <text x="0" y="0">Real-time decisions</text>
    <text x="0" y="38">Complete context</text>
    <text x="0" y="76">AI that reasons and acts</text>
    <text x="0" y="114">Trusted and governed autonomy</text>
  </g>

  <rect x="70" y="1160" width="1260" height="210" rx="14" fill="#070b12" stroke="#30394a"/>
  <text x="700" y="1240" text-anchor="middle" class="title" font-size="48">THE V.E.N.K.A.T FRAMEWORK</text>
  <text x="700" y="1296" text-anchor="middle" class="head">The architectural foundation for Agentic AI</text>
  <text x="700" y="1350" text-anchor="middle" class="body">Signal -> Context -> Reasoning -> Action -> Feedback</text>
  <text x="700" y="1450" text-anchor="middle" class="head" fill="#f2c84b">AI will not transform your enterprise. Architecture will.</text>
</svg>
